<?xml version="1.0" standalone="no"?>
<!DOCTYPE svg PUBLIC "-//W3C//DTD SVG 20010904//EN"
 "http://www.w3.org/TR/2001/REC-SVG-20010904/DTD/svg10.dtd">
<svg version="1.0" xmlns="http://www.w3.org/2000/svg"
 width="200.000000pt" height="200.000000pt" viewBox="0 0 200.000000 200.000000"
 preserveAspectRatio="xMidYMid meet">

<g transform="translate(0.000000,200.000000) scale(0.100000,-0.100000)"
fill="#fff" stroke="none">
<path d="M565 1470 c-3 -5 -1 -10 4 -10 6 0 11 5 11 10 0 6 -2 10 -4 10 -3 0
-8 -4 -11 -10z"/>
<path d="M600 1450 c0 -25 4 -30 25 -30 l25 0 0 -125 0 -125 25 0 25 0 0 155
0 155 -50 0 c-49 0 -50 -1 -50 -30z"/>
<path d="M760 1450 l0 -29 98 -3 97 -3 3 -32 3 -33 -100 0 -101 0 0 -30 0 -30
100 0 c92 0 100 -2 100 -19 0 -48 -7 -51 -106 -51 -94 0 -94 0 -94 -25 l0 -25
103 0 c136 0 141 5 145 137 4 106 -8 150 -45 164 -13 5 -65 9 -114 9 l-89 0 0
-30z"/>
<path d="M1070 1450 l0 -30 95 0 95 0 0 -35 0 -35 -95 0 -95 0 0 -30 0 -30 96
0 95 0 -3 -32 -3 -33 -92 -3 c-91 -3 -93 -3 -93 -27 0 -25 0 -25 100 -25 138
0 140 2 140 154 0 112 -1 115 -26 135 -23 18 -41 21 -120 21 l-94 0 0 -30z"/>
<path d="M1360 1450 l0 -30 85 0 c47 0 85 -2 85 -3 0 -2 -29 -57 -65 -122 -36
-64 -65 -119 -65 -121 0 -2 13 -4 28 -4 30 0 27 -5 149 224 44 82 39 86 -103
86 l-114 0 0 -30z"/>
<path d="M1700 1425 c0 -59 -1 -60 -31 -44 -26 14 -59 2 -59 -21 0 -23 33 -35
59 -21 30 16 31 15 31 -44 l0 -55 65 0 c64 0 75 -6 55 -26 -6 -6 -8 -18 -4
-28 10 -26 58 -17 62 12 2 12 -1 22 -7 22 -6 0 -11 5 -11 10 0 6 30 10 70 10
l70 0 0 48 0 49 -42 -1 c-39 -1 -43 1 -43 24 0 23 3 25 43 23 l42 -2 0 50 0
49 -65 0 c-65 0 -75 -6 -54 -27 19 -19 2 -43 -31 -43 -35 0 -49 23 -31 51 10
18 7 19 -54 19 l-65 0 0 -55z"/>
<path d="M397 1432 c-14 -15 -17 -41 -17 -140 0 -101 -3 -122 -15 -122 -8 0
-17 -11 -21 -25 -6 -24 -8 -25 -98 -25 -138 -1 -210 -44 -237 -143 -50 -187
188 -322 307 -173 25 31 35 36 72 36 36 0 47 -5 78 -39 41 -47 89 -65 149 -58
79 8 124 51 162 155 7 20 14 14 72 -68 68 -97 90 -109 114 -62 8 15 30 56 50
91 30 55 33 67 24 92 -9 24 -17 29 -43 29 -50 0 -64 -9 -64 -41 0 -24 4 -29
25 -29 l25 0 -22 -45 c-12 -25 -25 -45 -28 -45 -6 0 -63 73 -83 107 -9 14 24
78 71 141 23 30 24 34 9 49 -8 9 -22 13 -29 10 -8 -2 -38 -44 -68 -92 l-53
-88 -13 43 c-27 92 -94 129 -230 130 -90 0 -92 1 -98 25 -4 14 -13 25 -21 25
-12 0 -15 20 -15 118 0 121 6 142 42 142 27 0 38 -32 38 -107 0 -75 9 -93 50
-93 35 0 50 17 50 57 0 43 -18 43 -22 1 -2 -28 -7 -33 -28 -33 -24 0 -25 3
-30 81 -3 46 -11 89 -19 98 -18 21 -64 20 -84 -2z m21 -299 c2 -9 -7 -13 -27
-13 -30 0 -39 9 -24 24 11 10 46 3 51 -11z m213 -44 c144 -37 168 -235 38
-309 -67 -37 -144 -20 -195 44 -27 33 -33 36 -84 36 -51 0 -57 -3 -84 -36 -87
-110 -251 -67 -281 73 -15 75 54 186 122 195 60 9 450 6 484 -3z"/>
<path d="M540 1051 c-128 -68 -73 -274 68 -258 137 15 163 210 36 263 -44 18
-63 18 -104 -5z m123 -31 c31 -25 51 -80 42 -120 -3 -16 -23 -43 -42 -61 -32
-27 -41 -31 -77 -26 -60 8 -96 52 -96 116 0 40 5 54 29 80 24 26 37 31 74 31
29 0 53 -7 70 -20z"/>
<path d="M582 1007 c-14 -17 2 -42 22 -34 20 8 20 21 2 36 -10 8 -16 8 -24 -2z"/>
<path d="M514 939 c-3 -6 0 -17 8 -25 13 -13 16 -13 27 0 7 8 10 20 6 26 -8
13 -32 13 -41 -1z"/>
<path d="M640 931 c0 -11 4 -22 8 -25 14 -9 35 12 29 28 -9 23 -37 20 -37 -3z"/>
<path d="M581 877 c-14 -17 3 -41 23 -34 9 4 16 13 16 21 0 19 -26 28 -39 13z"/>
<path d="M150 1005 c0 -32 -3 -35 -29 -35 -34 0 -54 -20 -49 -52 2 -19 10 -24
40 -26 35 -3 37 -5 40 -40 3 -34 6 -37 33 -37 27 0 30 3 33 38 3 35 5 37 38
37 35 0 35 1 32 38 -3 34 -6 37 -35 40 -30 3 -33 6 -33 38 0 32 -2 34 -35 34
-33 0 -35 -2 -35 -35z m50 -25 c0 -39 1 -40 35 -40 24 0 35 -5 35 -15 0 -10
-11 -15 -35 -15 -33 0 -35 -2 -35 -35 0 -24 -5 -35 -15 -35 -10 0 -15 11 -15
35 0 33 -2 35 -35 35 -46 0 -49 27 -2 32 29 3 32 6 35 41 5 53 32 51 32 -3z"/>
<path d="M377 964 c-13 -13 -7 -24 14 -24 11 0 19 5 17 12 -5 14 -22 21 -31
12z"/>
<path d="M370 900 c0 -5 9 -10 20 -10 11 0 20 5 20 10 0 6 -9 10 -20 10 -11 0
-20 -4 -20 -10z"/>
<path d="M1145 1098 c-4 -18 -27 -102 -51 -185 -24 -84 -44 -155 -44 -159 0
-3 12 -4 28 -2 25 3 29 9 56 111 16 59 32 107 36 107 8 0 40 -122 34 -132 -3
-4 -13 -8 -23 -8 -20 0 -51 -30 -51 -48 0 -16 25 -15 61 3 28 15 30 15 39 -10
10 -27 47 -35 55 -12 3 6 -15 74 -40 150 -25 76 -45 147 -45 158 0 10 -4 19
-9 19 -5 0 -13 9 -16 20 -9 30 -23 24 -30 -12z"/>
<path d="M1327 938 c-9 -100 -15 -183 -14 -184 1 -1 14 -4 30 -8 l27 -6 1 57
c1 83 14 171 22 153 4 -8 20 -53 35 -100 43 -129 55 -124 98 43 9 37 19 65 22
62 3 -3 11 -51 19 -107 7 -55 15 -103 17 -106 3 -2 16 -2 29 2 l23 5 -17 128
c-9 71 -20 154 -24 186 -6 51 -9 57 -30 57 -31 0 -33 -4 -65 -128 -15 -58 -29
-101 -32 -96 -3 5 -20 57 -38 117 -32 101 -35 107 -60 107 l-26 0 -17 -182z"/>
<path d="M1732 1078 c-41 -62 -82 -135 -82 -147 0 -16 120 -182 136 -188 8 -3
21 -2 29 1 14 5 14 9 1 33 -8 16 -35 54 -60 87 -25 32 -46 62 -46 67 0 5 23
46 51 90 39 64 48 84 37 90 -24 16 -37 9 -66 -33z"/>
<path d="M1882 1057 c-29 -29 -52 -60 -52 -69 0 -9 23 -36 50 -61 28 -25 50
-49 50 -53 0 -5 -20 -29 -45 -54 -46 -46 -46 -46 -25 -65 20 -18 21 -17 80 46
33 35 60 68 60 72 0 5 -22 32 -50 61 -27 29 -50 57 -50 62 0 4 16 25 37 46 30
31 34 40 23 53 -7 8 -15 15 -19 15 -4 0 -30 -24 -59 -53z"/>
<path d="M1739 954 c-10 -13 -10 -20 4 -42 18 -31 35 -34 50 -10 8 12 7 24 -3
42 -15 30 -32 33 -51 10z"/>
</g>
</svg>
